<mxfile host="app.diagrams.net" agent="Mozilla/5.0 (Windows NT 10.0; Win64; x64) AppleWebKit/537.36 (KHTML, like Gecko) Chrome/137.0.0.0 Safari/537.36" version="27.1.5">
  <diagram id="Ht1M8jgEwFfnCIfOTk4-" name="Page-1">
    <mxGraphModel grid="1" page="1" gridSize="10" guides="1" tooltips="1" connect="1" arrows="1" fold="1" pageScale="1" pageWidth="1169" pageHeight="827" math="0" shadow="0">
      <root>
        <mxCell id="0" />
        <mxCell id="1" parent="0" />
        <mxCell id="UEzPUAAOIrF-is8g5C7q-74" value="AWS Cloud" style="points=[[0,0],[0.25,0],[0.5,0],[0.75,0],[1,0],[1,0.25],[1,0.5],[1,0.75],[1,1],[0.75,1],[0.5,1],[0.25,1],[0,1],[0,0.75],[0,0.5],[0,0.25]];outlineConnect=0;gradientColor=none;html=1;whiteSpace=wrap;fontSize=12;fontStyle=0;shape=mxgraph.aws4.group;grIcon=mxgraph.aws4.group_aws_cloud_alt;strokeColor=#232F3E;fillColor=none;verticalAlign=top;align=left;spacingLeft=30;fontColor=#232F3E;dashed=0;labelBackgroundColor=#ffffff;container=1;pointerEvents=0;collapsible=0;recursiveResize=0;" vertex="1" parent="1">
          <mxGeometry x="150" y="100" width="950" height="672" as="geometry" />
        </mxCell>
        <mxCell id="2To4Lg_6mNJgqHkVp9uK-2" value="US-EAST-2" style="points=[[0,0],[0.25,0],[0.5,0],[0.75,0],[1,0],[1,0.25],[1,0.5],[1,0.75],[1,1],[0.75,1],[0.5,1],[0.25,1],[0,1],[0,0.75],[0,0.5],[0,0.25]];outlineConnect=0;gradientColor=none;html=1;whiteSpace=wrap;fontSize=12;fontStyle=0;container=1;pointerEvents=0;collapsible=0;recursiveResize=0;shape=mxgraph.aws4.group;grIcon=mxgraph.aws4.group_region;strokeColor=#00A4A6;fillColor=none;verticalAlign=top;align=left;spacingLeft=30;fontColor=#147EBA;dashed=1;" vertex="1" parent="UEzPUAAOIrF-is8g5C7q-74">
          <mxGeometry x="10" y="30" width="930" height="610" as="geometry" />
        </mxCell>
        <mxCell id="2To4Lg_6mNJgqHkVp9uK-8" value="VPC (ssm-vpc / 10.0.0.0/24)" style="points=[[0,0],[0.25,0],[0.5,0],[0.75,0],[1,0],[1,0.25],[1,0.5],[1,0.75],[1,1],[0.75,1],[0.5,1],[0.25,1],[0,1],[0,0.75],[0,0.5],[0,0.25]];outlineConnect=0;gradientColor=none;html=1;whiteSpace=wrap;fontSize=12;fontStyle=0;container=1;pointerEvents=0;collapsible=0;recursiveResize=0;shape=mxgraph.aws4.group;grIcon=mxgraph.aws4.group_vpc2;strokeColor=#8C4FFF;fillColor=none;verticalAlign=top;align=left;spacingLeft=30;fontColor=#AAB7B8;dashed=0;" vertex="1" parent="2To4Lg_6mNJgqHkVp9uK-2">
          <mxGeometry x="30" y="60" width="660" height="520" as="geometry" />
        </mxCell>
        <mxCell id="TPCj60sYn2cIZddfXZA--1" value="Subnet (ssm-private-subnet-1 / 10.0.0.128/26)" style="points=[[0,0],[0.25,0],[0.5,0],[0.75,0],[1,0],[1,0.25],[1,0.5],[1,0.75],[1,1],[0.75,1],[0.5,1],[0.25,1],[0,1],[0,0.75],[0,0.5],[0,0.25]];outlineConnect=0;gradientColor=none;html=1;whiteSpace=wrap;fontSize=12;fontStyle=0;container=1;pointerEvents=0;collapsible=0;recursiveResize=0;shape=mxgraph.aws4.group;grIcon=mxgraph.aws4.group_security_group;grStroke=0;strokeColor=#7AA116;fillColor=#F2F6E8;verticalAlign=top;align=left;spacingLeft=30;fontColor=#248814;dashed=0;" vertex="1" parent="2To4Lg_6mNJgqHkVp9uK-8">
          <mxGeometry x="90" y="72" width="330" height="160" as="geometry" />
        </mxCell>
        <mxCell id="TPCj60sYn2cIZddfXZA--7" value="windows-instance&lt;div&gt;&lt;br&gt;&lt;/div&gt;" style="sketch=0;points=[[0,0,0],[0.25,0,0],[0.5,0,0],[0.75,0,0],[1,0,0],[0,1,0],[0.25,1,0],[0.5,1,0],[0.75,1,0],[1,1,0],[0,0.25,0],[0,0.5,0],[0,0.75,0],[1,0.25,0],[1,0.5,0],[1,0.75,0]];outlineConnect=0;fontColor=#232F3E;fillColor=#ED7100;strokeColor=#ffffff;dashed=0;verticalLabelPosition=bottom;verticalAlign=top;align=center;html=1;fontSize=12;fontStyle=0;aspect=fixed;shape=mxgraph.aws4.resourceIcon;resIcon=mxgraph.aws4.ec2;" vertex="1" parent="TPCj60sYn2cIZddfXZA--1">
          <mxGeometry x="130" y="41" width="78" height="78" as="geometry" />
        </mxCell>
        <mxCell id="ZLFBv9SZ9lnerFjYZTt2-12" value="" style="endArrow=classic;startArrow=classic;html=1;rounded=0;entryX=0;entryY=0.5;entryDx=0;entryDy=0;entryPerimeter=0;" edge="1" parent="TPCj60sYn2cIZddfXZA--1" target="ZLFBv9SZ9lnerFjYZTt2-9">
          <mxGeometry width="50" height="50" relative="1" as="geometry">
            <mxPoint x="210" y="80" as="sourcePoint" />
            <mxPoint x="260" y="30" as="targetPoint" />
          </mxGeometry>
        </mxCell>
        <mxCell id="TPCj60sYn2cIZddfXZA--6" value="Subnet (ssm-private-subnet-2 / 10.0.0.192/26)" style="points=[[0,0],[0.25,0],[0.5,0],[0.75,0],[1,0],[1,0.25],[1,0.5],[1,0.75],[1,1],[0.75,1],[0.5,1],[0.25,1],[0,1],[0,0.75],[0,0.5],[0,0.25]];outlineConnect=0;gradientColor=none;html=1;whiteSpace=wrap;fontSize=12;fontStyle=0;container=1;pointerEvents=0;collapsible=0;recursiveResize=0;shape=mxgraph.aws4.group;grIcon=mxgraph.aws4.group_security_group;grStroke=0;strokeColor=#7AA116;fillColor=#F2F6E8;verticalAlign=top;align=left;spacingLeft=30;fontColor=#248814;dashed=0;" vertex="1" parent="2To4Lg_6mNJgqHkVp9uK-8">
          <mxGeometry x="90" y="312" width="330" height="158" as="geometry" />
        </mxCell>
        <mxCell id="TPCj60sYn2cIZddfXZA--9" value="ubuntu-instance" style="sketch=0;points=[[0,0,0],[0.25,0,0],[0.5,0,0],[0.75,0,0],[1,0,0],[0,1,0],[0.25,1,0],[0.5,1,0],[0.75,1,0],[1,1,0],[0,0.25,0],[0,0.5,0],[0,0.75,0],[1,0.25,0],[1,0.5,0],[1,0.75,0]];outlineConnect=0;fontColor=#232F3E;fillColor=#ED7100;strokeColor=#ffffff;dashed=0;verticalLabelPosition=bottom;verticalAlign=top;align=center;html=1;fontSize=12;fontStyle=0;aspect=fixed;shape=mxgraph.aws4.resourceIcon;resIcon=mxgraph.aws4.ec2;" vertex="1" parent="TPCj60sYn2cIZddfXZA--6">
          <mxGeometry x="130" y="50" width="78" height="78" as="geometry" />
        </mxCell>
        <mxCell id="ZLFBv9SZ9lnerFjYZTt2-14" value="" style="endArrow=classic;startArrow=classic;html=1;rounded=0;entryX=0;entryY=0.5;entryDx=0;entryDy=0;entryPerimeter=0;" edge="1" parent="TPCj60sYn2cIZddfXZA--6" target="ZLFBv9SZ9lnerFjYZTt2-10">
          <mxGeometry width="50" height="50" relative="1" as="geometry">
            <mxPoint x="210" y="90" as="sourcePoint" />
            <mxPoint x="260" y="40" as="targetPoint" />
          </mxGeometry>
        </mxCell>
        <mxCell id="ZLFBv9SZ9lnerFjYZTt2-9" value="Systems Manager" style="sketch=0;points=[[0,0,0],[0.25,0,0],[0.5,0,0],[0.75,0,0],[1,0,0],[0,1,0],[0.25,1,0],[0.5,1,0],[0.75,1,0],[1,1,0],[0,0.25,0],[0,0.5,0],[0,0.75,0],[1,0.25,0],[1,0.5,0],[1,0.75,0]];points=[[0,0,0],[0.25,0,0],[0.5,0,0],[0.75,0,0],[1,0,0],[0,1,0],[0.25,1,0],[0.5,1,0],[0.75,1,0],[1,1,0],[0,0.25,0],[0,0.5,0],[0,0.75,0],[1,0.25,0],[1,0.5,0],[1,0.75,0]];outlineConnect=0;fontColor=#232F3E;fillColor=#E7157B;strokeColor=#ffffff;dashed=0;verticalLabelPosition=bottom;verticalAlign=top;align=center;html=1;fontSize=12;fontStyle=0;aspect=fixed;shape=mxgraph.aws4.resourceIcon;resIcon=mxgraph.aws4.systems_manager;" vertex="1" parent="2To4Lg_6mNJgqHkVp9uK-8">
          <mxGeometry x="500" y="114" width="78" height="78" as="geometry" />
        </mxCell>
        <mxCell id="ZLFBv9SZ9lnerFjYZTt2-10" value="Systems Manager" style="sketch=0;points=[[0,0,0],[0.25,0,0],[0.5,0,0],[0.75,0,0],[1,0,0],[0,1,0],[0.25,1,0],[0.5,1,0],[0.75,1,0],[1,1,0],[0,0.25,0],[0,0.5,0],[0,0.75,0],[1,0.25,0],[1,0.5,0],[1,0.75,0]];points=[[0,0,0],[0.25,0,0],[0.5,0,0],[0.75,0,0],[1,0,0],[0,1,0],[0.25,1,0],[0.5,1,0],[0.75,1,0],[1,1,0],[0,0.25,0],[0,0.5,0],[0,0.75,0],[1,0.25,0],[1,0.5,0],[1,0.75,0]];outlineConnect=0;fontColor=#232F3E;fillColor=#E7157B;strokeColor=#ffffff;dashed=0;verticalLabelPosition=bottom;verticalAlign=top;align=center;html=1;fontSize=12;fontStyle=0;aspect=fixed;shape=mxgraph.aws4.resourceIcon;resIcon=mxgraph.aws4.systems_manager;" vertex="1" parent="2To4Lg_6mNJgqHkVp9uK-8">
          <mxGeometry x="500" y="362" width="78" height="78" as="geometry" />
        </mxCell>
        <mxCell id="ZLFBv9SZ9lnerFjYZTt2-17" value="" style="endArrow=classic;startArrow=classic;html=1;rounded=0;" edge="1" parent="2To4Lg_6mNJgqHkVp9uK-8" target="ZLFBv9SZ9lnerFjYZTt2-4">
          <mxGeometry width="50" height="50" relative="1" as="geometry">
            <mxPoint x="580" y="152" as="sourcePoint" />
            <mxPoint x="630" y="102" as="targetPoint" />
          </mxGeometry>
        </mxCell>
        <mxCell id="ZLFBv9SZ9lnerFjYZTt2-18" value="" style="endArrow=classic;startArrow=classic;html=1;rounded=0;" edge="1" parent="2To4Lg_6mNJgqHkVp9uK-8">
          <mxGeometry width="50" height="50" relative="1" as="geometry">
            <mxPoint x="579" y="167" as="sourcePoint" />
            <mxPoint x="730" y="167" as="targetPoint" />
          </mxGeometry>
        </mxCell>
        <mxCell id="ZLFBv9SZ9lnerFjYZTt2-4" value="InstallIIS&lt;div&gt;Document&lt;/div&gt;" style="sketch=0;outlineConnect=0;fontColor=#232F3E;gradientColor=none;fillColor=#E7157B;strokeColor=none;dashed=0;verticalLabelPosition=bottom;verticalAlign=top;align=center;html=1;fontSize=12;fontStyle=0;aspect=fixed;pointerEvents=1;shape=mxgraph.aws4.documents;" vertex="1" parent="2To4Lg_6mNJgqHkVp9uK-2">
          <mxGeometry x="770" y="72" width="64" height="78" as="geometry" />
        </mxCell>
        <mxCell id="ZLFBv9SZ9lnerFjYZTt2-5" value="AWS-RunPowerShellScript&lt;div&gt;Document&lt;/div&gt;" style="sketch=0;outlineConnect=0;fontColor=#232F3E;gradientColor=none;fillColor=#E7157B;strokeColor=none;dashed=0;verticalLabelPosition=bottom;verticalAlign=top;align=center;html=1;fontSize=12;fontStyle=0;aspect=fixed;pointerEvents=1;shape=mxgraph.aws4.documents;" vertex="1" parent="2To4Lg_6mNJgqHkVp9uK-2">
          <mxGeometry x="770" y="202" width="64" height="78" as="geometry" />
        </mxCell>
        <mxCell id="ZLFBv9SZ9lnerFjYZTt2-6" value="InstallApache&lt;div&gt;Document&lt;/div&gt;" style="sketch=0;outlineConnect=0;fontColor=#232F3E;gradientColor=none;fillColor=#E7157B;strokeColor=none;dashed=0;verticalLabelPosition=bottom;verticalAlign=top;align=center;html=1;fontSize=12;fontStyle=0;aspect=fixed;pointerEvents=1;shape=mxgraph.aws4.documents;" vertex="1" parent="2To4Lg_6mNJgqHkVp9uK-2">
          <mxGeometry x="770" y="352" width="64" height="78" as="geometry" />
        </mxCell>
        <mxCell id="ZLFBv9SZ9lnerFjYZTt2-7" value="AWS-RunShellScript&lt;div&gt;Document&lt;/div&gt;" style="sketch=0;outlineConnect=0;fontColor=#232F3E;gradientColor=none;fillColor=#E7157B;strokeColor=none;dashed=0;verticalLabelPosition=bottom;verticalAlign=top;align=center;html=1;fontSize=12;fontStyle=0;aspect=fixed;pointerEvents=1;shape=mxgraph.aws4.documents;" vertex="1" parent="2To4Lg_6mNJgqHkVp9uK-2">
          <mxGeometry x="770" y="482" width="64" height="78" as="geometry" />
        </mxCell>
        <mxCell id="ZLFBv9SZ9lnerFjYZTt2-19" value="" style="endArrow=classic;startArrow=classic;html=1;rounded=0;" edge="1" parent="2To4Lg_6mNJgqHkVp9uK-2" target="ZLFBv9SZ9lnerFjYZTt2-6">
          <mxGeometry width="50" height="50" relative="1" as="geometry">
            <mxPoint x="610" y="450" as="sourcePoint" />
            <mxPoint x="680" y="382" as="targetPoint" />
          </mxGeometry>
        </mxCell>
        <mxCell id="ZLFBv9SZ9lnerFjYZTt2-20" value="" style="endArrow=classic;startArrow=classic;html=1;rounded=0;" edge="1" parent="2To4Lg_6mNJgqHkVp9uK-2" source="ZLFBv9SZ9lnerFjYZTt2-10" target="ZLFBv9SZ9lnerFjYZTt2-7">
          <mxGeometry width="50" height="50" relative="1" as="geometry">
            <mxPoint x="430" y="372" as="sourcePoint" />
            <mxPoint x="480" y="322" as="targetPoint" />
          </mxGeometry>
        </mxCell>
        <mxCell id="2To4Lg_6mNJgqHkVp9uK-46" value="" style="edgeStyle=orthogonalEdgeStyle;html=1;endArrow=block;elbow=vertical;startArrow=block;startFill=1;endFill=1;strokeColor=#545B64;rounded=0;" edge="1" parent="1">
          <mxGeometry width="100" relative="1" as="geometry">
            <mxPoint x="630" y="380" as="sourcePoint" />
            <mxPoint x="630" y="380" as="targetPoint" />
          </mxGeometry>
        </mxCell>
      </root>
    </mxGraphModel>
  </diagram>
</mxfile>
